<svg xmlns="http://www.w3.org/2000/svg" width="172" height="80" viewBox="0 0 172 80" fill="none">
<path d="M141.593 73.6543C141.81 73.6543 142.047 73.6646 142.294 73.6955C142.356 73.7058 142.418 73.7161 142.48 73.7264C142.541 73.7264 142.603 73.747 142.675 73.7573C142.799 73.7779 142.933 73.8088 143.067 73.8501C143.613 73.9943 144.2 74.2313 144.798 74.5095C145.375 74.7671 145.962 75.0556 146.488 75.3235C147.013 75.5914 147.477 75.849 147.807 76.0242C148.136 76.1993 148.332 76.3127 148.332 76.3127C148.332 76.3127 148.281 76.3333 148.178 76.3745C148.075 76.4054 147.93 76.4672 147.755 76.5188C147.384 76.6218 146.869 76.7558 146.282 76.8794C146.137 76.9103 145.983 76.9412 145.828 76.9618C145.674 76.9824 145.509 77.0031 145.354 77.0237C145.035 77.0546 144.705 77.0855 144.375 77.0958C143.726 77.1267 143.057 77.0443 142.49 76.8897C141.356 76.5806 140.584 75.8799 140.11 75.3029C139.625 74.7156 139.43 74.2313 139.43 74.2313C139.43 74.2313 139.821 73.984 140.46 73.8294C140.779 73.7573 141.161 73.6749 141.604 73.6749L141.593 73.6543Z" fill="#ACACAD"/>
<path d="M139.852 69.1506C140.12 68.7281 140.47 68.3572 140.831 67.9965C141.006 67.8214 141.202 67.6565 141.387 67.502C141.48 67.4298 141.573 67.3474 141.665 67.2856C141.758 67.2134 141.84 67.1413 141.933 67.0692C142.284 66.8013 142.603 66.5849 142.83 66.4406C143.056 66.2861 143.201 66.1934 143.201 66.1934C143.201 66.1934 143.201 66.3994 143.19 66.7292C143.19 67.0692 143.149 67.5226 143.077 68.0481C143.005 68.5633 142.891 69.1506 142.727 69.7173C142.562 70.2634 142.325 70.7992 142.047 71.2423C141.985 71.3556 141.902 71.4587 141.83 71.5617C141.799 71.6132 141.758 71.6544 141.717 71.706C141.676 71.7472 141.645 71.7884 141.603 71.8296C141.439 71.9945 141.274 72.1284 141.099 72.2521C140.934 72.3757 140.759 72.4684 140.594 72.5509C140.429 72.6333 140.264 72.7054 140.109 72.7467C139.491 72.9218 139.048 72.8909 139.048 72.8909C139.048 72.8909 138.976 72.3654 139.048 71.6441C139.089 71.2835 139.151 70.8713 139.285 70.4489C139.316 70.3458 139.357 70.2325 139.398 70.1295C139.44 70.0161 139.481 69.9131 139.522 69.7997C139.615 69.5833 139.728 69.367 139.862 69.1609L139.852 69.1506Z" fill="#ACACAD"/>
<path d="M148.621 70.3971C148.621 70.3971 148.714 70.3146 148.786 70.2528C148.931 70.1292 149.147 69.954 149.435 69.7994C149.58 69.717 149.734 69.6346 149.92 69.5624C150.095 69.4903 150.301 69.4285 150.497 69.3564C150.909 69.2327 151.403 69.1606 151.97 69.1709C152.259 69.1709 152.547 69.1915 152.856 69.2224C153.165 69.2533 153.485 69.2945 153.804 69.3461C154.124 69.3976 154.453 69.4594 154.763 69.5212C155.072 69.5831 155.381 69.6449 155.669 69.7067C156.246 69.8304 156.761 69.9437 157.122 70.0364C157.493 70.1292 157.709 70.1807 157.709 70.1807C157.709 70.1807 157.524 70.3146 157.194 70.5104C157.04 70.6135 156.844 70.7268 156.628 70.8504C156.524 70.9123 156.401 70.9844 156.277 71.0462C156.154 71.108 156.02 71.1699 155.886 71.242C155.618 71.3656 155.329 71.4996 155.03 71.6129C154.876 71.6748 154.732 71.7263 154.577 71.7881C154.505 71.819 154.422 71.8499 154.35 71.8705C154.268 71.8911 154.196 71.9118 154.113 71.9427C153.475 72.1178 152.836 72.2312 152.248 72.2312C151.053 72.2002 150.136 71.7469 149.508 71.3141C149.198 71.0977 148.951 70.8813 148.797 70.7165C148.632 70.5516 148.549 70.4486 148.549 70.4486C148.549 70.4486 148.57 70.428 148.611 70.3971H148.621Z" fill="#ACACAD"/>
<path d="M150.269 66.9148C150.125 67.399 149.888 67.8009 149.63 68.1306C149.507 68.2955 149.362 68.4294 149.228 68.5428C149.084 68.6561 148.95 68.7592 148.816 68.8416C148.548 69.0065 148.301 69.1198 148.126 69.1816C148.044 69.2125 147.961 69.2331 147.91 69.2434C147.858 69.2538 147.827 69.2641 147.827 69.2641C147.827 69.2641 147.776 69.1404 147.703 68.9343C147.631 68.7283 147.549 68.4294 147.487 68.0585C147.353 67.3372 147.291 66.379 147.57 65.4516C147.703 64.9776 147.93 64.5139 148.188 64.0915C148.435 63.6587 148.724 63.2466 148.991 62.9065C149.125 62.7417 149.249 62.5665 149.362 62.4325C149.476 62.2883 149.579 62.1646 149.672 62.0616C149.847 61.8555 149.97 61.7422 149.97 61.7422C149.97 61.7422 150.032 61.938 150.104 62.2574C150.187 62.5768 150.279 63.0405 150.352 63.5557C150.393 63.8236 150.424 64.1018 150.444 64.3903C150.465 64.6685 150.465 64.957 150.465 65.2558C150.465 65.5443 150.444 65.8328 150.413 66.1214C150.372 66.3996 150.331 66.6778 150.249 66.9148H150.269Z" fill="#ACACAD"/>
<path d="M156.813 63.8854C156.916 63.7308 157.07 63.5041 157.307 63.2775C157.534 63.0405 157.833 62.8035 158.204 62.5768C158.564 62.3501 159.007 62.144 159.564 61.9998C159.749 61.9483 159.945 61.907 160.141 61.8761C160.336 61.8349 160.543 61.804 160.749 61.7731C161.779 61.6185 162.954 61.5567 163.84 61.5052C164.736 61.4537 165.375 61.4434 165.375 61.4434C165.375 61.4434 165.159 61.7216 164.788 62.1234C164.427 62.5356 163.871 63.0405 163.253 63.5248C163.16 63.5969 163.057 63.669 162.964 63.7411C162.912 63.7823 162.861 63.8133 162.809 63.8545C162.758 63.8854 162.706 63.9163 162.655 63.9575C162.449 64.0915 162.232 64.2151 162.016 64.3388C161.8 64.4521 161.583 64.5655 161.367 64.6479C161.15 64.7406 160.934 64.823 160.718 64.8746C159.564 65.1631 158.554 64.9879 157.833 64.7303C157.101 64.4727 156.658 64.1533 156.658 64.1533C156.658 64.1533 156.71 64.0503 156.813 63.8957V63.8854Z" fill="#ACACAD"/>
<path d="M156.43 62.5352C156.224 62.7722 156.018 62.9473 155.863 63.0504C155.708 63.1534 155.605 63.2049 155.605 63.2049C155.605 63.2049 155.255 62.7928 154.925 62.1436C154.585 61.4842 154.245 60.5774 154.256 59.6089C154.256 59.2482 154.287 58.8773 154.359 58.5269C154.39 58.3518 154.441 58.1766 154.493 58.0014C154.544 57.8366 154.585 57.6511 154.637 57.4862C154.73 57.1977 154.822 56.9195 154.925 56.6722C154.956 56.6104 154.977 56.5486 154.998 56.4868C155.028 56.4249 155.039 56.3734 155.07 56.3116C155.111 56.1982 155.152 56.0952 155.193 56.0025C155.358 55.6212 155.482 55.3945 155.482 55.3945C155.482 55.3945 155.801 55.8685 156.172 56.6001C156.265 56.7856 156.358 56.971 156.461 57.1874C156.512 57.2905 156.553 57.4038 156.605 57.5068C156.656 57.6099 156.687 57.7232 156.739 57.8366C156.904 58.2796 157.048 58.7639 157.151 59.2379C157.192 59.4234 157.223 59.5985 157.244 59.7737C157.264 59.9489 157.275 60.124 157.275 60.2889C157.275 60.8041 157.172 61.2472 157.017 61.6284C156.852 61.9994 156.636 62.2982 156.43 62.5352Z" fill="#ACACAD"/>
<path d="M164.52 56.1469C164.294 56.1572 164.088 56.1469 163.892 56.1469C163.119 56.0953 162.604 55.9099 162.604 55.9099C162.604 55.9099 162.625 55.7965 162.686 55.6214C162.717 55.5286 162.759 55.4256 162.81 55.3019C162.851 55.1783 162.913 55.0443 162.985 54.9001C163.14 54.6116 163.346 54.3024 163.645 53.983C163.717 53.9109 163.789 53.8388 163.871 53.746C163.954 53.6636 164.036 53.5915 164.129 53.509C164.314 53.3545 164.531 53.1999 164.768 53.0557C165.005 52.9114 165.273 52.7775 165.561 52.6435C165.829 52.5096 166.128 52.3859 166.416 52.2623C167.004 52.015 167.632 51.7986 168.199 51.6028C168.755 51.407 169.24 51.2422 169.6 51.1288C169.961 51.0155 170.177 50.9434 170.177 50.9434C170.177 50.9434 170.095 51.1494 169.94 51.4895C169.868 51.6543 169.765 51.8604 169.652 52.0768C169.528 52.2932 169.394 52.5302 169.24 52.7775C169.085 53.0248 168.91 53.2824 168.735 53.54C168.694 53.6018 168.642 53.6636 168.591 53.7254C168.539 53.7873 168.498 53.8491 168.436 53.9109C168.333 54.0345 168.23 54.1582 168.117 54.2715C167.9 54.5085 167.673 54.7352 167.436 54.9413C167.323 55.0443 167.199 55.1474 167.076 55.2298C166.952 55.3122 166.829 55.3947 166.695 55.4771C166.19 55.7759 165.675 55.9408 165.201 56.0335C164.964 56.085 164.727 56.1056 164.51 56.1159L164.52 56.1469Z" fill="#ACACAD"/>
<path d="M162.212 53.3948C162.16 53.7966 162.047 54.1367 161.923 54.4252C161.861 54.5694 161.789 54.6931 161.727 54.7961C161.666 54.9094 161.583 54.9919 161.532 55.064C161.418 55.2083 161.326 55.2804 161.326 55.2804C161.326 55.2804 160.872 54.9816 160.367 54.4458C160.244 54.3118 160.11 54.1676 159.986 54.0027C159.852 53.8378 159.718 53.6627 159.594 53.4669C159.347 53.0856 159.131 52.6632 158.987 52.1995C158.945 52.0862 158.925 51.9625 158.894 51.8389C158.863 51.7152 158.842 51.5916 158.822 51.4679C158.78 51.2206 158.76 50.9733 158.75 50.726C158.75 50.2315 158.729 49.7472 158.77 49.3144C158.791 49.098 158.811 48.9023 158.832 48.7168C158.842 48.5313 158.863 48.3768 158.883 48.2428C158.914 47.9749 158.945 47.8203 158.945 47.8203C158.945 47.8203 159.1 47.9543 159.347 48.1913C159.594 48.4283 159.934 48.758 160.295 49.1599C160.645 49.5617 161.006 50.0254 161.326 50.52C161.49 50.7673 161.635 51.0249 161.769 51.2825C161.892 51.5298 161.995 51.7874 162.067 52.0346C162.14 52.2819 162.181 52.5189 162.212 52.7456C162.222 52.859 162.232 52.9723 162.232 53.0754C162.232 53.1269 162.232 53.1784 162.232 53.2299C162.232 53.2814 162.222 53.3329 162.212 53.3845V53.3948Z" fill="#ACACAD"/>
<path d="M169.022 45.9252C168.806 46.0798 168.579 46.2035 168.363 46.3168C167.92 46.5332 167.497 46.6568 167.116 46.7393C166.364 46.8938 165.818 46.8526 165.818 46.8526C165.818 46.8526 165.756 46.4095 165.9 45.781C165.931 45.6264 165.993 45.4616 166.045 45.2761C166.096 45.1009 166.168 44.9155 166.271 44.7197C166.364 44.5342 166.477 44.3281 166.622 44.1324C166.694 44.0293 166.766 43.9366 166.848 43.8335C166.89 43.782 166.931 43.7305 166.982 43.679C167.023 43.6275 167.065 43.576 167.116 43.5347C167.858 42.731 169.053 41.917 170.001 41.2473C170.486 40.9175 170.918 40.629 171.227 40.4229C171.547 40.2169 171.743 40.1035 171.743 40.1035C171.743 40.1035 171.712 40.3302 171.65 40.6908C171.588 41.0515 171.495 41.5564 171.341 42.1128C171.176 42.6692 170.949 43.2771 170.681 43.8542C170.62 43.9984 170.537 44.1427 170.455 44.2766C170.372 44.4106 170.29 44.5445 170.207 44.6785C170.032 44.9361 169.847 45.1731 169.651 45.3791C169.445 45.5852 169.249 45.7707 169.022 45.9252Z" fill="#ACACAD"/>
<path d="M164.418 46.5848C164.418 46.5848 163.892 46.4096 163.253 46.0283C162.923 45.8326 162.573 45.5853 162.233 45.2865C162.068 45.1319 161.903 44.9773 161.749 44.7919C161.584 44.6167 161.429 44.4209 161.295 44.2148C161.161 44.0088 161.038 43.7821 160.935 43.5554C160.832 43.3287 160.76 43.0917 160.667 42.8547C160.492 42.3807 160.378 41.9068 160.296 41.4843C160.193 41.0618 160.131 40.6909 160.09 40.423C160.059 40.1551 160.049 39.9902 160.049 39.9902C160.049 39.9902 160.234 40.083 160.533 40.2375C160.832 40.4024 161.244 40.6394 161.708 40.9279C162.161 41.2267 162.666 41.5873 163.099 41.9789C163.542 42.3704 163.944 42.8032 164.232 43.2463C164.387 43.4627 164.479 43.679 164.562 43.8954C164.644 44.1118 164.696 44.3179 164.737 44.5137C164.778 44.7094 164.788 44.9052 164.799 45.0804C164.799 45.2555 164.778 45.4307 164.758 45.575C164.655 46.1829 164.428 46.5641 164.428 46.5641L164.418 46.5848Z" fill="#ACACAD"/>
<path d="M170.218 32.4073C170.187 32.6443 170.135 32.8813 170.084 33.1183C169.97 33.582 169.847 34.0251 169.63 34.4063C169.352 34.9215 169.022 35.3234 168.662 35.6428C168.301 35.9622 167.941 36.1992 167.59 36.3744C166.9 36.7247 166.364 36.8277 166.364 36.8277C166.364 36.8277 166.323 36.7247 166.271 36.5392C166.23 36.3538 166.158 36.0962 166.127 35.7767C166.096 35.4573 166.106 35.0864 166.189 34.6639C166.261 34.2518 166.395 33.7881 166.653 33.3038C166.735 33.1389 166.838 32.9741 166.941 32.8092C166.993 32.7268 167.044 32.6443 167.106 32.5516C167.157 32.4692 167.219 32.3764 167.271 32.294C167.559 31.8715 167.879 31.4388 168.208 31.0369C168.528 30.6248 168.858 30.2332 169.136 29.9035C169.692 29.2337 170.115 28.7598 170.115 28.7598C170.115 28.7598 170.177 29.0998 170.249 29.6356C170.29 29.9035 170.3 30.2229 170.31 30.5732C170.31 30.9236 170.31 31.2945 170.31 31.6861C170.31 31.9231 170.269 32.1601 170.238 32.4073H170.218Z" fill="#ACACAD"/>
<path d="M161.264 35.5194C161.192 35.4576 161.13 35.3958 161.068 35.3339C161.006 35.2721 160.934 35.2 160.872 35.1382C160.738 35.0042 160.615 34.86 160.501 34.7157C160.388 34.5714 160.285 34.4169 160.182 34.2726C160.079 34.1078 159.976 33.9635 159.883 33.8193C159.718 33.5617 159.574 33.3041 159.45 33.0671C159.389 32.9434 159.327 32.8301 159.275 32.727C159.224 32.6137 159.172 32.521 159.121 32.4282C158.935 32.0573 158.842 31.8203 158.842 31.8203C158.842 31.8203 159.419 31.913 160.233 32.1294C160.429 32.1809 160.656 32.2428 160.872 32.3149C161.089 32.387 161.315 32.4694 161.552 32.5622C162.016 32.7373 162.48 32.9537 162.912 33.201C163.253 33.3865 163.541 33.6029 163.799 33.8193C164.19 34.1593 164.479 34.5302 164.664 34.9012C164.839 35.2618 164.932 35.6224 164.973 35.9213C165.014 36.2304 165.025 36.488 164.994 36.6734C164.973 36.8589 164.942 36.962 164.942 36.962C164.942 36.962 164.396 36.931 163.675 36.7353C162.954 36.5395 162.016 36.1686 161.274 35.5194H161.264Z" fill="#ACACAD"/>
<path d="M165.837 25.3181C165.58 25.7199 165.291 26.06 165.013 26.3176C164.457 26.8328 163.972 27.0801 163.972 27.0801C163.972 27.0801 163.9 26.9873 163.797 26.8328C163.694 26.6679 163.57 26.4309 163.447 26.1321C163.323 25.8333 163.22 25.4726 163.169 25.0502C163.148 24.8441 163.148 24.6174 163.148 24.3804C163.148 24.1434 163.169 23.8961 163.22 23.6282C163.272 23.3603 163.344 23.0821 163.426 22.7936C163.467 22.6494 163.519 22.5051 163.57 22.3506C163.622 22.2063 163.663 22.062 163.715 21.9075C163.921 21.3202 164.158 20.7328 164.384 20.197C164.498 19.9291 164.601 19.6818 164.704 19.4552C164.797 19.2285 164.889 19.0327 164.961 18.8678C165.106 18.5278 165.198 18.332 165.198 18.332C165.198 18.332 165.312 18.5278 165.466 18.8678C165.549 19.0327 165.631 19.2388 165.724 19.4655C165.817 19.7024 165.909 19.96 165.992 20.2279C166.033 20.3619 166.085 20.5062 166.126 20.6504C166.167 20.7947 166.208 20.9389 166.239 21.1038C166.301 21.4129 166.363 21.722 166.404 22.0414C166.445 22.3609 166.476 22.67 166.476 22.9688C166.476 23.2779 166.445 23.5767 166.394 23.8549C166.28 24.4113 166.085 24.8956 165.837 25.2975V25.3181Z" fill="#ACACAD"/>
<path d="M158.038 26.8213C157.822 26.6873 157.605 26.5328 157.399 26.3782C157.204 26.2236 157.018 26.0588 156.833 25.8939C156.658 25.7291 156.472 25.5745 156.317 25.4199C156.163 25.2654 156.019 25.1108 155.895 24.9769C155.833 24.9047 155.771 24.8429 155.72 24.7811C155.668 24.7193 155.617 24.6677 155.565 24.6162C155.38 24.4102 155.277 24.2865 155.277 24.2865C155.277 24.2865 155.483 24.2659 155.833 24.235C156.184 24.2144 156.668 24.1835 157.214 24.2041C157.75 24.2247 158.368 24.2762 158.966 24.3689C159.12 24.3998 159.264 24.4205 159.419 24.4514C159.563 24.4823 159.707 24.5235 159.841 24.5647C160.12 24.6471 160.388 24.7399 160.625 24.8532C160.862 24.9666 161.078 25.0902 161.274 25.2242C161.469 25.3581 161.624 25.5127 161.768 25.6569C162.046 25.9557 162.242 26.2752 162.376 26.5534C162.51 26.8316 162.562 27.0892 162.593 27.2643C162.624 27.4498 162.634 27.5529 162.634 27.5529C162.634 27.5529 162.098 27.6765 161.346 27.6765C160.965 27.6765 160.532 27.6559 160.089 27.5735C159.625 27.5013 159.151 27.3674 158.687 27.1613C158.461 27.0583 158.244 26.9346 158.028 26.7904L158.038 26.8213Z" fill="#ACACAD"/>
<path d="M160.429 16.5387C160.295 16.9921 160.11 17.3837 159.914 17.7134C159.533 18.3522 159.131 18.7129 159.131 18.7129C159.131 18.7129 158.739 18.4553 158.348 17.9401C158.245 17.8061 158.152 17.6619 158.059 17.497C157.966 17.3425 157.863 17.157 157.781 16.9715C157.616 16.58 157.492 16.1163 157.441 15.5702C157.379 15.0344 157.389 14.4264 157.441 13.7979C157.492 13.1694 157.544 12.5511 157.616 11.9741C157.688 11.4074 157.76 10.9025 157.812 10.5419C157.874 10.1812 157.905 9.96484 157.905 9.96484C157.905 9.96484 157.946 10.0061 158.018 10.0782C158.08 10.1606 158.183 10.274 158.306 10.4182C158.543 10.7067 158.873 11.1189 159.203 11.5929C159.522 12.0874 159.842 12.6542 160.099 13.2312C160.347 13.8185 160.522 14.4264 160.584 14.9932C160.594 15.1374 160.604 15.2714 160.604 15.4053C160.604 15.5393 160.594 15.6732 160.584 15.8072C160.553 16.0648 160.501 16.3121 160.439 16.5387H160.429Z" fill="#ACACAD"/>
<path d="M153.328 19.9998C153.205 19.9586 153.091 19.9174 152.968 19.8659C152.906 19.8453 152.855 19.8247 152.793 19.7937C152.731 19.7731 152.669 19.7422 152.607 19.7216C152.123 19.5258 151.69 19.2889 151.309 19.0725C150.917 18.8664 150.588 18.6603 150.361 18.5058C150.248 18.4233 150.155 18.3615 150.093 18.3203C150.031 18.2791 149.99 18.2585 149.99 18.2585C149.99 18.2585 150.042 18.2379 150.134 18.2069C150.227 18.176 150.361 18.1245 150.516 18.073C150.835 17.9699 151.299 17.8257 151.834 17.702C152.102 17.6402 152.381 17.5784 152.679 17.5269C152.824 17.5063 152.978 17.4754 153.122 17.4548C153.267 17.4341 153.421 17.4238 153.565 17.4135C154.163 17.362 154.771 17.362 155.307 17.4548C155.832 17.5475 156.265 17.733 156.626 17.939C156.811 18.0421 156.966 18.1554 157.11 18.2791C157.244 18.4027 157.357 18.5264 157.46 18.65C157.862 19.1343 158.006 19.5465 158.006 19.5465C158.006 19.5465 157.522 19.804 156.791 20.0101C156.43 20.1132 155.997 20.2059 155.534 20.2471C155.07 20.2883 154.596 20.278 154.081 20.2059C153.823 20.1647 153.576 20.1029 153.328 20.0204V19.9998Z" fill="#ACACAD"/>
<path d="M151.929 11.3038C151.836 11.5099 151.764 11.6232 151.764 11.6232C151.764 11.6232 151.733 11.6232 151.682 11.5923C151.63 11.5717 151.558 11.5408 151.476 11.4996C151.301 11.4171 151.053 11.2832 150.796 11.0874C150.28 10.6855 149.642 10.0879 149.24 9.05753C149.106 8.7175 148.972 8.34656 148.869 7.95501C148.735 7.46042 148.622 6.93492 148.529 6.43002C148.426 5.93544 148.333 5.45115 148.271 5.01838C148.127 4.16316 148.055 3.55523 148.055 3.54492C148.055 3.54492 148.364 3.73039 148.817 4.04981C149.044 4.20437 149.302 4.40015 149.59 4.61653C149.858 4.84322 150.147 5.10082 150.435 5.37902C150.61 5.54389 150.775 5.71905 150.94 5.90452C150.981 5.94574 151.022 5.99726 151.064 6.03847C151.105 6.07969 151.136 6.13121 151.177 6.18273C151.249 6.27546 151.321 6.3785 151.393 6.47124C151.682 6.86279 151.919 7.26464 152.084 7.6665C152.197 7.92409 152.269 8.2023 152.31 8.4496C152.352 8.70719 152.382 8.95449 152.382 9.19148C152.393 9.66546 152.321 10.0879 152.228 10.4486C152.135 10.8092 152.022 11.0977 151.929 11.3038Z" fill="#ACACAD"/>
<path d="M145.098 14.2416C144.789 14.1797 144.5 14.1076 144.232 14.0355C143.964 13.9737 143.717 13.9118 143.511 13.85C143.109 13.7264 142.852 13.6336 142.852 13.6336C142.852 13.6336 143.315 13.2833 144.026 12.8608C144.377 12.6445 144.799 12.4178 145.252 12.2014C145.695 11.9953 146.169 11.8098 146.654 11.6656C147.025 11.5522 147.385 11.4698 147.736 11.4389C148.787 11.3462 149.621 11.645 150.147 12.0159C150.415 12.1911 150.61 12.3766 150.734 12.5002C150.796 12.562 150.847 12.6239 150.878 12.6651C150.909 12.7063 150.92 12.7269 150.92 12.7269C150.92 12.7269 150.827 12.8196 150.652 12.9639C150.476 13.1081 150.219 13.2936 149.889 13.4894C149.57 13.6852 149.178 13.8912 148.756 14.0561C148.539 14.1385 148.313 14.2107 148.076 14.2622C147.839 14.324 147.602 14.3652 147.344 14.3961C146.592 14.4889 145.819 14.3652 145.098 14.2519V14.2416Z" fill="#ACACAD"/>
<path d="M134.061 74.4457C134.268 74.4251 134.515 74.3942 134.803 74.353C134.948 74.3323 135.102 74.322 135.257 74.2911C135.411 74.2602 135.586 74.2293 135.751 74.1984C136.102 74.1366 136.473 74.0747 136.874 74.0026C137.266 73.9099 137.688 73.8171 138.121 73.7244C138.338 73.6729 138.564 73.6317 138.781 73.5698C138.997 73.508 139.224 73.4462 139.44 73.3844C139.883 73.2607 140.347 73.1474 140.79 72.9928C142.593 72.457 144.324 71.7048 145.592 71.1072C145.901 70.9526 146.199 70.8084 146.447 70.6847C146.581 70.6229 146.694 70.5611 146.807 70.5096C146.921 70.4581 147.013 70.3962 147.106 70.3447C147.467 70.1489 147.663 70.0356 147.663 70.0356C147.663 70.0356 147.869 69.9223 148.229 69.7265C148.58 69.5204 149.074 69.201 149.672 68.8403C150.836 68.0675 152.372 66.9959 153.763 65.7698C155.164 64.5539 156.452 63.2144 157.359 62.1737C157.482 62.05 157.575 61.9161 157.678 61.7925C157.781 61.6688 157.874 61.5555 157.956 61.4421C158.131 61.2257 158.286 61.0403 158.42 60.8754C158.554 60.7208 158.636 60.5869 158.698 60.5045C158.76 60.4117 158.801 60.3705 158.801 60.3705C158.801 60.3705 158.935 60.185 159.172 59.8656C159.285 59.7008 159.44 59.5153 159.595 59.2783C159.749 59.0413 159.924 58.7837 160.12 58.4952C160.213 58.3509 160.316 58.2067 160.419 58.0521C160.522 57.8976 160.615 57.7327 160.718 57.5575C160.924 57.2175 161.13 56.8569 161.357 56.4962C161.552 56.115 161.769 55.7234 161.975 55.3319C162.026 55.2288 162.078 55.1361 162.14 55.0331C162.191 54.93 162.232 54.827 162.284 54.7239C162.377 54.5179 162.48 54.3118 162.572 54.1057C163.335 52.4468 163.974 50.726 164.334 49.4071C164.386 49.2423 164.427 49.0877 164.479 48.9331C164.52 48.7889 164.571 48.6446 164.592 48.5107C164.654 48.2428 164.716 48.0058 164.757 47.81C164.85 47.4185 164.901 47.2021 164.901 47.2021C164.901 47.2021 164.911 47.1506 164.942 47.0475C164.963 46.9445 164.994 46.7899 165.025 46.5941C165.066 46.3984 165.107 46.1614 165.148 45.8935C165.2 45.6256 165.272 45.3165 165.303 44.9764C165.344 44.6364 165.396 44.2758 165.447 43.8842C165.458 43.7915 165.478 43.6884 165.488 43.5957C165.499 43.4927 165.509 43.3999 165.519 43.2866C165.53 43.0805 165.55 42.8744 165.571 42.658C165.664 41.8131 165.664 40.8961 165.684 39.9893C165.653 39.0826 165.653 38.1758 165.571 37.3206C165.561 37.1145 165.54 36.8981 165.519 36.6921C165.519 36.589 165.509 36.486 165.488 36.3932C165.478 36.2902 165.458 36.1975 165.447 36.0944C165.396 35.7132 165.344 35.3422 165.303 35.0022C165.262 34.6622 165.2 34.3634 165.148 34.0852C165.097 33.8173 165.056 33.5803 165.025 33.3845C164.984 33.1887 164.963 33.0342 164.942 32.9311C164.911 32.8281 164.901 32.7766 164.901 32.7766C164.901 32.7766 164.85 32.5602 164.757 32.1686C164.716 31.9729 164.654 31.7359 164.592 31.468C164.561 31.334 164.52 31.1898 164.479 31.0455C164.437 30.8909 164.386 30.7364 164.334 30.5715C163.974 29.2526 163.335 27.5422 162.572 25.8729C162.469 25.6668 162.377 25.4608 162.284 25.2547C162.232 25.1516 162.191 25.0486 162.14 24.9456C162.088 24.8425 162.037 24.7498 161.975 24.6468C161.758 24.2449 161.552 23.8534 161.357 23.4824C161.14 23.1115 160.924 22.7508 160.718 22.4211C160.615 22.2562 160.522 22.0811 160.419 21.9265C160.316 21.772 160.213 21.6277 160.12 21.4834C159.935 21.1949 159.749 20.9373 159.595 20.7003C159.44 20.4634 159.285 20.2779 159.172 20.113C158.935 19.7833 158.801 19.6081 158.801 19.6081C158.801 19.6081 158.76 19.5566 158.698 19.4742C158.636 19.3917 158.544 19.2578 158.42 19.1032C158.296 18.9487 158.131 18.7529 157.956 18.5365C157.864 18.4232 157.771 18.3098 157.678 18.1862C157.575 18.0625 157.472 17.9389 157.359 17.8049C156.452 16.7642 155.164 15.4247 153.763 14.2089C152.361 12.9827 150.836 11.9111 149.672 11.1383C149.074 10.7777 148.58 10.4582 148.229 10.2522C147.869 10.0564 147.663 9.94301 147.663 9.94301C147.663 9.94301 147.457 9.82966 147.106 9.63389C147.013 9.58237 146.921 9.53085 146.807 9.46903C146.694 9.41751 146.581 9.35568 146.447 9.29386C146.364 9.25264 146.272 9.21143 146.179 9.15991H146.158C145.932 9.18052 145.612 9.19082 145.231 9.15991C144.468 9.129 143.479 8.96413 142.614 8.49015C142.16 8.26347 141.738 7.94404 141.367 7.60401C141.192 7.42885 140.996 7.26398 140.821 7.08882C140.646 6.92395 140.491 6.74879 140.347 6.58392C140.069 6.2542 139.811 5.96569 139.646 5.74931C139.481 5.53292 139.389 5.39897 139.389 5.39897C139.389 5.39897 139.595 5.39897 139.945 5.38867C140.295 5.38867 140.78 5.38867 141.326 5.44019C141.46 5.45049 141.604 5.46079 141.748 5.4814C141.892 5.50201 142.037 5.52262 142.181 5.54323C142.469 5.58444 142.768 5.64627 143.057 5.70809C143.644 5.85234 144.231 6.02751 144.685 6.28511C145.148 6.5324 145.509 6.84152 145.777 7.15064C146.035 7.47006 146.199 7.78948 146.323 8.0883C146.436 8.37681 146.488 8.63441 146.509 8.80957C146.509 8.84049 146.509 8.8817 146.509 8.91261C146.54 8.93322 146.581 8.94353 146.612 8.96413C146.735 9.02596 146.859 9.08778 146.972 9.1393C147.086 9.20112 147.178 9.25264 147.271 9.30416C147.632 9.49994 147.838 9.62359 147.838 9.62359C147.838 9.62359 148.044 9.73693 148.405 9.9327C148.755 10.1388 149.26 10.4582 149.857 10.8292C151.032 11.602 152.578 12.6942 153.989 13.9307C155.401 15.1671 156.699 16.5066 157.627 17.568C157.75 17.6916 157.843 17.8255 157.946 17.9492C158.049 18.0728 158.142 18.1862 158.234 18.2995C158.42 18.5159 158.575 18.7117 158.698 18.8662C158.832 19.0208 158.915 19.1548 158.987 19.2372C159.048 19.3196 159.09 19.3711 159.09 19.3711C159.09 19.3711 159.224 19.5566 159.471 19.8863C159.584 20.0512 159.739 20.247 159.904 20.484C160.058 20.721 160.233 20.9889 160.429 21.2774C160.532 21.4216 160.625 21.5762 160.728 21.7307C160.831 21.8853 160.924 22.0605 161.027 22.2253C161.233 22.5654 161.449 22.926 161.666 23.2969C161.872 23.6782 162.078 24.0697 162.294 24.4819C162.346 24.5849 162.397 24.688 162.459 24.7807C162.511 24.8837 162.552 24.9868 162.603 25.0898C162.706 25.2959 162.799 25.5123 162.902 25.7184C163.675 27.3979 164.324 29.129 164.685 30.4582C164.736 30.623 164.777 30.7776 164.829 30.9322C164.87 31.0867 164.922 31.2207 164.953 31.3649C165.014 31.6328 165.076 31.8801 165.118 32.0759C165.21 32.4674 165.272 32.6941 165.272 32.6941C165.272 32.6941 165.282 32.756 165.313 32.859C165.344 32.962 165.365 33.1166 165.406 33.3227C165.437 33.5184 165.488 33.7657 165.54 34.0336C165.591 34.3118 165.653 34.621 165.695 34.961C165.736 35.301 165.787 35.672 165.839 36.0635C165.849 36.1666 165.87 36.2593 165.88 36.3623C165.89 36.4654 165.901 36.5684 165.911 36.6714C165.921 36.8775 165.942 37.0836 165.962 37.3103C166.055 38.1655 166.055 39.0826 166.086 39.9996C166.055 40.9167 166.055 41.8337 165.962 42.6889C165.942 42.9053 165.932 43.1114 165.911 43.3175C165.901 43.4205 165.901 43.5236 165.88 43.6163C165.87 43.7193 165.849 43.8224 165.839 43.9151C165.787 44.3067 165.736 44.6776 165.695 45.0176C165.653 45.3577 165.581 45.6668 165.54 45.945C165.488 46.2232 165.447 46.4602 165.406 46.656C165.365 46.8517 165.344 47.0063 165.313 47.1196C165.293 47.2227 165.272 47.2845 165.272 47.2845C165.272 47.2845 165.221 47.5112 165.118 47.9027C165.076 48.0985 165.014 48.3355 164.953 48.6137C164.922 48.7477 164.881 48.8919 164.829 49.0465C164.788 49.201 164.736 49.3556 164.685 49.5205C164.324 50.8497 163.685 52.5807 162.902 54.2603C162.809 54.4664 162.706 54.6827 162.603 54.8888C162.552 54.9918 162.511 55.0949 162.459 55.1979C162.408 55.301 162.346 55.404 162.294 55.4967C162.078 55.8986 161.872 56.2901 161.666 56.6817C161.449 57.0526 161.233 57.4133 161.027 57.7533C160.924 57.9182 160.831 58.0933 160.728 58.2479C160.625 58.4025 160.522 58.557 160.429 58.7013C160.233 58.9898 160.058 59.2577 159.904 59.4947C159.749 59.7317 159.595 59.9274 159.471 60.0923C159.224 60.422 159.09 60.6075 159.09 60.6075C159.09 60.6075 159.048 60.659 158.987 60.7414C158.925 60.8239 158.832 60.9578 158.698 61.1124C158.575 61.267 158.41 61.4627 158.234 61.6791C158.142 61.7925 158.049 61.9058 157.946 62.0294C157.843 62.1531 157.75 62.287 157.627 62.4107C156.709 63.472 155.411 64.8115 153.989 66.048C152.578 67.2845 151.032 68.3664 149.857 69.1495C149.249 69.5204 148.755 69.8398 148.405 70.0459C148.044 70.2417 147.838 70.355 147.838 70.355C147.838 70.355 147.632 70.4684 147.271 70.6744C147.178 70.726 147.075 70.7775 146.972 70.8393C146.859 70.8908 146.735 70.9527 146.612 71.0145C146.354 71.1381 146.066 71.2824 145.746 71.4472C144.458 72.0449 142.717 72.7971 140.893 73.3432C140.44 73.4977 139.986 73.6111 139.533 73.7347C139.306 73.7965 139.079 73.8584 138.863 73.9202C138.647 73.982 138.42 74.0232 138.204 74.0747C137.771 74.1675 137.348 74.2602 136.947 74.353C136.545 74.4251 136.163 74.4869 135.813 74.5487C135.638 74.5796 135.473 74.6106 135.308 74.6312C135.143 74.6621 134.989 74.6724 134.845 74.693C134.556 74.7239 134.309 74.7548 134.092 74.7857C133.68 74.8372 133.443 74.8681 133.443 74.8681L133.402 74.5178C133.402 74.5178 133.639 74.4869 134.051 74.4354L134.061 74.4457Z" fill="#ACACAD"/>
<path d="M31.0376 73.6543C30.8212 73.6543 30.5842 73.6646 30.3369 73.6955C30.2751 73.7058 30.2132 73.7161 30.1514 73.7264C30.0896 73.7264 30.0278 73.747 29.9557 73.7573C29.832 73.7779 29.6981 73.8088 29.5641 73.8501C29.018 73.9943 28.4307 74.2313 27.833 74.5095C27.256 74.7671 26.6687 75.0556 26.1432 75.3235C25.6177 75.5914 25.154 75.849 24.8243 76.0242C24.4946 76.1993 24.2988 76.3127 24.2988 76.3127C24.2988 76.3127 24.3503 76.3333 24.4534 76.3745C24.5564 76.4054 24.7006 76.4672 24.8758 76.5188C25.2468 76.6218 25.7619 76.7558 26.3493 76.8794C26.4935 76.9103 26.6481 76.9412 26.8026 76.9618C26.9572 76.9824 27.1221 77.0031 27.2766 77.0237C27.5961 77.0546 27.9258 77.0855 28.2555 77.0958C28.9046 77.1267 29.5744 77.0443 30.1411 76.8897C31.2746 76.5806 32.0473 75.8799 32.5213 75.3029C33.0056 74.7156 33.2014 74.2313 33.2014 74.2313C33.2014 74.2313 32.8098 73.984 32.171 73.8294C31.8516 73.7573 31.4703 73.6749 31.0273 73.6749L31.0376 73.6543Z" fill="#ACACAD"/>
<path d="M32.7804 69.1506C32.5124 68.7281 32.1621 68.3572 31.8015 67.9965C31.6263 67.8214 31.4305 67.6565 31.2451 67.502C31.1523 67.4298 31.0596 67.3474 30.9669 67.2856C30.8741 67.2134 30.7917 67.1413 30.699 67.0692C30.3486 66.8013 30.0292 66.5849 29.8025 66.4406C29.5758 66.2861 29.4316 66.1934 29.4316 66.1934C29.4316 66.1934 29.4316 66.3994 29.4419 66.7292C29.4419 67.0692 29.4831 67.5226 29.5552 68.0481C29.6273 68.5633 29.7407 69.1506 29.9056 69.7173C30.0704 70.2634 30.3074 70.7992 30.5856 71.2423C30.6474 71.3556 30.7299 71.4587 30.802 71.5617C30.8329 71.6132 30.8741 71.6544 30.9153 71.706C30.9566 71.7472 30.9875 71.7884 31.0287 71.8296C31.1935 71.9945 31.3584 72.1284 31.5336 72.2521C31.6984 72.3757 31.8736 72.4684 32.0385 72.5509C32.2033 72.6333 32.3682 72.7054 32.5228 72.7467C33.141 72.9218 33.5841 72.8909 33.5841 72.8909C33.5841 72.8909 33.6562 72.3654 33.5841 71.6441C33.5428 71.2835 33.481 70.8713 33.3471 70.4489C33.3162 70.3458 33.2749 70.2325 33.2337 70.1295C33.1925 70.0161 33.1513 69.9131 33.1101 69.7997C33.0173 69.5833 32.904 69.367 32.77 69.1609L32.7804 69.1506Z" fill="#ACACAD"/>
<path d="M24.0119 70.3971C24.0119 70.3971 23.9191 70.3146 23.847 70.2528C23.7028 70.1292 23.4864 69.954 23.1979 69.7994C23.0536 69.717 22.8991 69.6346 22.7136 69.5624C22.5384 69.4903 22.3323 69.4285 22.1366 69.3564C21.7244 69.2327 21.2298 69.1606 20.6631 69.1709C20.3746 69.1709 20.0861 69.1915 19.777 69.2224C19.4678 69.2533 19.1484 69.2945 18.829 69.3461C18.5096 69.3976 18.1799 69.4594 17.8707 69.5212C17.5616 69.5831 17.2525 69.6449 16.964 69.7067C16.387 69.8304 15.8718 69.9437 15.5111 70.0364C15.1402 70.1292 14.9238 70.1807 14.9238 70.1807C14.9238 70.1807 15.1093 70.3146 15.439 70.5104C15.5936 70.6135 15.7893 70.7268 16.0057 70.8504C16.1088 70.9123 16.2324 70.9844 16.3561 71.0462C16.4797 71.108 16.6137 71.1699 16.7476 71.242C17.0155 71.3656 17.304 71.4996 17.6028 71.6129C17.7574 71.6748 17.9016 71.7263 18.0562 71.7881C18.1283 71.819 18.2108 71.8499 18.2829 71.8705C18.3653 71.8911 18.4374 71.9118 18.5199 71.9427C19.1587 72.1178 19.7976 72.2312 20.3849 72.2312C21.5801 72.2002 22.4972 71.7469 23.1257 71.3141C23.4349 71.0977 23.6822 70.8813 23.8367 70.7165C24.0016 70.5516 24.084 70.4486 24.084 70.4486C24.084 70.4486 24.0634 70.428 24.0222 70.3971H24.0119Z" fill="#ACACAD"/>
<path d="M22.3618 66.9148C22.5061 67.399 22.743 67.8009 23.0006 68.1306C23.1243 68.2955 23.2686 68.4294 23.4025 68.5428C23.5468 68.6561 23.6807 68.7592 23.8147 68.8416C24.0826 69.0065 24.3299 69.1198 24.505 69.1816C24.5875 69.2125 24.6699 69.2331 24.7214 69.2434C24.7729 69.2538 24.8038 69.2641 24.8038 69.2641C24.8038 69.2641 24.8554 69.1404 24.9275 68.9343C24.9996 68.7283 25.082 68.4294 25.1439 68.0585C25.2778 67.3372 25.3396 66.379 25.0614 65.4516C24.9275 64.9776 24.7008 64.5139 24.4432 64.0915C24.1959 63.6587 23.9074 63.2466 23.6395 62.9065C23.5055 62.7417 23.3819 62.5665 23.2686 62.4325C23.1552 62.2883 23.0522 62.1646 22.9594 62.0616C22.7843 61.8555 22.6606 61.7422 22.6606 61.7422C22.6606 61.7422 22.5988 61.938 22.5267 62.2574C22.4442 62.5768 22.3515 63.0405 22.2794 63.5557C22.2382 63.8236 22.2072 64.1018 22.1866 64.3903C22.166 64.6685 22.166 64.957 22.166 65.2558C22.166 65.5443 22.1866 65.8328 22.2176 66.1214C22.2588 66.3996 22.3 66.6778 22.3824 66.9148H22.3618Z" fill="#ACACAD"/>
<path d="M15.8184 63.8854C15.7154 63.7308 15.5608 63.5041 15.3238 63.2775C15.0971 63.0405 14.7983 62.8035 14.4274 62.5768C14.0668 62.3501 13.6237 62.144 13.0673 61.9998C12.8818 61.9483 12.686 61.907 12.4902 61.8761C12.2945 61.8349 12.0884 61.804 11.8823 61.7731C10.8519 61.6185 9.67728 61.5567 8.79115 61.5052C7.8947 61.4537 7.25586 61.4434 7.25586 61.4434C7.25586 61.4434 7.47224 61.7216 7.84318 62.1234C8.20382 62.5356 8.76023 63.0405 9.37847 63.5248C9.47121 63.5969 9.57425 63.669 9.66698 63.7411C9.7185 63.7823 9.77002 63.8133 9.82154 63.8545C9.87306 63.8854 9.92458 63.9163 9.9761 63.9575C10.1822 64.0915 10.3985 64.2151 10.6149 64.3388C10.8313 64.4521 11.0477 64.5655 11.2641 64.6479C11.4805 64.7406 11.6968 64.823 11.9132 64.8746C13.0673 65.1631 14.0771 64.9879 14.7983 64.7303C15.5299 64.4727 15.973 64.1533 15.973 64.1533C15.973 64.1533 15.9215 64.0503 15.8184 63.8957V63.8854Z" fill="#ACACAD"/>
<path d="M16.2004 62.5352C16.4065 62.7722 16.6126 62.9473 16.7671 63.0504C16.9217 63.1534 17.0247 63.2049 17.0247 63.2049C17.0247 63.2049 17.3751 62.7928 17.7048 62.1436C18.0448 61.4842 18.3848 60.5774 18.3745 59.6089C18.3745 59.2482 18.3436 58.8773 18.2715 58.5269C18.2406 58.3518 18.1891 58.1766 18.1375 58.0014C18.086 57.8366 18.0448 57.6511 17.9933 57.4862C17.9006 57.1977 17.8078 56.9195 17.7048 56.6722C17.6739 56.6104 17.6533 56.5486 17.6326 56.4868C17.6017 56.4249 17.5914 56.3734 17.5605 56.3116C17.5193 56.1982 17.4781 56.0952 17.4369 56.0025C17.272 55.6212 17.1484 55.3945 17.1484 55.3945C17.1484 55.3945 16.8289 55.8685 16.458 56.6001C16.3653 56.7856 16.2725 56.971 16.1695 57.1874C16.118 57.2905 16.0768 57.4038 16.0252 57.5068C15.9737 57.6099 15.9428 57.7232 15.8913 57.8366C15.7264 58.2796 15.5822 58.7639 15.4791 59.2379C15.4379 59.4234 15.407 59.5985 15.3864 59.7737C15.3658 59.9489 15.3555 60.124 15.3555 60.2889C15.3555 60.8041 15.4585 61.2472 15.6131 61.6284C15.7779 61.9994 15.9943 62.2982 16.2004 62.5352Z" fill="#ACACAD"/>
<path d="M8.11194 56.1469C8.33863 56.1572 8.54471 56.1469 8.74048 56.1469C9.51328 56.0953 10.0284 55.9099 10.0284 55.9099C10.0284 55.9099 10.0078 55.7965 9.94604 55.6214C9.91513 55.5286 9.87392 55.4256 9.8224 55.3019C9.78118 55.1783 9.71936 55.0443 9.64723 54.9001C9.49267 54.6116 9.28659 54.3024 8.98778 53.983C8.91565 53.9109 8.84352 53.8388 8.76109 53.746C8.67866 53.6636 8.59623 53.5915 8.50349 53.509C8.31802 53.3545 8.10164 53.1999 7.86465 53.0557C7.62766 52.9114 7.35976 52.7775 7.07125 52.6435C6.80334 52.5096 6.50453 52.3859 6.21602 52.2623C5.62869 52.015 5.00015 51.7986 4.43344 51.6028C3.87702 51.407 3.39274 51.2422 3.0321 51.1288C2.67146 51.0155 2.45508 50.9434 2.45508 50.9434C2.45508 50.9434 2.53751 51.1494 2.69207 51.4895C2.7642 51.6543 2.86724 51.8604 2.98058 52.0768C3.10423 52.2932 3.23818 52.5302 3.39274 52.7775C3.5473 53.0248 3.72247 53.2824 3.89763 53.54C3.93885 53.6018 3.99037 53.6636 4.04189 53.7254C4.09341 53.7873 4.13462 53.8491 4.19645 53.9109C4.29949 54.0345 4.40253 54.1582 4.51587 54.2715C4.73225 54.5085 4.95894 54.7352 5.19593 54.9413C5.30927 55.0443 5.43292 55.1474 5.55657 55.2298C5.68021 55.3122 5.80386 55.3947 5.93781 55.4771C6.44271 55.7759 6.9579 55.9408 7.43188 56.0335C7.66887 56.085 7.90586 56.1056 8.12225 56.1159L8.11194 56.1469Z" fill="#ACACAD"/>
<path d="M10.419 53.3948C10.4705 53.7966 10.5839 54.1367 10.7075 54.4252C10.7694 54.5694 10.8415 54.6931 10.9033 54.7961C10.9651 54.9094 11.0476 54.9919 11.0991 55.064C11.2124 55.2083 11.3052 55.2804 11.3052 55.2804C11.3052 55.2804 11.7585 54.9816 12.2634 54.4458C12.3871 54.3118 12.521 54.1676 12.6447 54.0027C12.7786 53.8378 12.9126 53.6627 13.0362 53.4669C13.2835 53.0856 13.4999 52.6632 13.6442 52.1995C13.6854 52.0862 13.706 51.9625 13.7369 51.8389C13.7678 51.7152 13.7884 51.5916 13.809 51.4679C13.8502 51.2206 13.8708 50.9733 13.8811 50.726C13.8811 50.2315 13.9017 49.7472 13.8605 49.3144C13.8399 49.098 13.8193 48.9023 13.7987 48.7168C13.7884 48.5313 13.7678 48.3768 13.7472 48.2428C13.7163 47.9749 13.6854 47.8203 13.6854 47.8203C13.6854 47.8203 13.5308 47.9543 13.2835 48.1913C13.0362 48.4283 12.6962 48.758 12.3356 49.1599C11.9852 49.5617 11.6246 50.0254 11.3052 50.52C11.1403 50.7673 10.996 51.0249 10.8621 51.2825C10.7384 51.5298 10.6354 51.7874 10.5633 52.0346C10.4911 52.2819 10.4499 52.5189 10.419 52.7456C10.4087 52.859 10.3984 52.9723 10.3984 53.0754C10.3984 53.1269 10.3984 53.1784 10.3984 53.2299C10.3984 53.2814 10.4087 53.3329 10.419 53.3845V53.3948Z" fill="#ACACAD"/>
<path d="M3.60891 45.9252C3.82529 46.0798 4.05198 46.2035 4.26836 46.3168C4.71143 46.5332 5.13389 46.6568 5.51513 46.7393C6.26732 46.8938 6.81343 46.8526 6.81343 46.8526C6.81343 46.8526 6.87525 46.4095 6.731 45.781C6.70009 45.6264 6.63826 45.4616 6.58674 45.2761C6.53522 45.1009 6.46311 44.9155 6.36006 44.7197C6.26732 44.5342 6.15398 44.3281 6.00972 44.1324C5.9376 44.0293 5.86547 43.9366 5.78304 43.8335C5.74182 43.782 5.7006 43.7305 5.64909 43.679C5.60787 43.6275 5.56665 43.576 5.51513 43.5347C4.77325 42.731 3.57799 41.917 2.63003 41.2473C2.14575 40.9175 1.71298 40.629 1.40386 40.4229C1.08444 40.2169 0.888672 40.1035 0.888672 40.1035C0.888672 40.1035 0.919584 40.3302 0.981407 40.6908C1.04323 41.0515 1.13596 41.5564 1.29052 42.1128C1.45538 42.6692 1.68207 43.2771 1.94997 43.8542C2.0118 43.9984 2.09423 44.1427 2.17666 44.2766C2.25909 44.4106 2.34152 44.5445 2.42395 44.6785C2.59912 44.9361 2.78459 45.1731 2.98037 45.3791C3.18644 45.5852 3.38222 45.7707 3.60891 45.9252Z" fill="#ACACAD"/>
<path d="M8.21513 46.5848C8.21513 46.5848 8.74063 46.4096 9.37948 46.0283C9.70921 45.8326 10.0595 45.5853 10.3996 45.2865C10.5644 45.1319 10.7293 44.9773 10.8838 44.7919C11.0487 44.6167 11.2033 44.4209 11.3372 44.2148C11.4712 44.0088 11.5948 43.7821 11.6979 43.5554C11.8009 43.3287 11.873 43.0917 11.9658 42.8547C12.1409 42.3807 12.2543 41.9068 12.3367 41.4843C12.4397 41.0618 12.5016 40.6909 12.5428 40.423C12.5737 40.1551 12.584 39.9902 12.584 39.9902C12.584 39.9902 12.3985 40.083 12.0997 40.2375C11.8009 40.4024 11.3887 40.6394 10.9251 40.9279C10.4717 41.2267 9.9668 41.5873 9.53404 41.9789C9.09097 42.3704 8.68912 42.8032 8.4006 43.2463C8.24605 43.4627 8.15331 43.679 8.07088 43.8954C7.98845 44.1118 7.93693 44.3179 7.89571 44.5137C7.8545 44.7094 7.84419 44.9052 7.83389 45.0804C7.83389 45.2555 7.8545 45.4307 7.8751 45.575C7.97814 46.1829 8.20483 46.5641 8.20483 46.5641L8.21513 46.5848Z" fill="#ACACAD"/>
<path d="M2.41305 32.4073C2.44396 32.6443 2.49548 32.8813 2.547 33.1183C2.66034 33.582 2.78399 34.0251 3.00037 34.4063C3.27858 34.9215 3.6083 35.3234 3.96894 35.6428C4.32958 35.9622 4.69022 36.1992 5.04055 36.3744C5.73092 36.7247 6.26672 36.8277 6.26672 36.8277C6.26672 36.8277 6.30794 36.7247 6.35946 36.5392C6.40067 36.3538 6.4728 36.0962 6.50371 35.7767C6.53462 35.4573 6.52432 35.0864 6.44189 34.6639C6.36976 34.2518 6.23581 33.7881 5.97821 33.3038C5.89578 33.1389 5.79274 32.9741 5.6897 32.8092C5.63818 32.7268 5.58666 32.6443 5.52484 32.5516C5.47332 32.4692 5.41149 32.3764 5.35997 32.294C5.07146 31.8715 4.75204 31.4388 4.42232 31.0369C4.10289 30.6248 3.77317 30.2332 3.49496 29.9035C2.93855 29.2337 2.51609 28.7598 2.51609 28.7598C2.51609 28.7598 2.45426 29.0998 2.38214 29.6356C2.34092 29.9035 2.33062 30.2229 2.32031 30.5732C2.32031 30.9236 2.32031 31.2945 2.32031 31.6861C2.32031 31.9231 2.36153 32.1601 2.39244 32.4073H2.41305Z" fill="#ACACAD"/>
<path d="M11.3671 35.5194C11.4392 35.4576 11.5011 35.3958 11.5629 35.3339C11.6247 35.2721 11.6968 35.2 11.7587 35.1382C11.8926 35.0042 12.0163 34.86 12.1296 34.7157C12.2429 34.5714 12.346 34.4169 12.449 34.2726C12.5521 34.1078 12.6551 33.9635 12.7478 33.8193C12.9127 33.5617 13.0569 33.3041 13.1806 33.0671C13.2424 32.9434 13.3042 32.8301 13.3558 32.727C13.4073 32.6137 13.4588 32.521 13.5103 32.4282C13.6958 32.0573 13.7885 31.8203 13.7885 31.8203C13.7885 31.8203 13.2115 31.913 12.3975 32.1294C12.2017 32.1809 11.975 32.2428 11.7587 32.3149C11.5423 32.387 11.3156 32.4694 11.0786 32.5622C10.6149 32.7373 10.1512 32.9537 9.7185 33.201C9.37847 33.3865 9.08996 33.6029 8.83236 33.8193C8.44082 34.1593 8.15231 34.5302 7.96683 34.9012C7.79167 35.2618 7.69893 35.6224 7.65772 35.9213C7.6165 36.2304 7.6062 36.488 7.63711 36.6734C7.65772 36.8589 7.68863 36.962 7.68863 36.962C7.68863 36.962 8.23474 36.931 8.95601 36.7353C9.67729 36.5395 10.6149 36.1686 11.3568 35.5194H11.3671Z" fill="#ACACAD"/>
<path d="M6.79314 25.3181C7.05074 25.7199 7.33925 26.06 7.61745 26.3176C8.17387 26.8328 8.65815 27.0801 8.65815 27.0801C8.65815 27.0801 8.73028 26.9873 8.83332 26.8328C8.93636 26.6679 9.06001 26.4309 9.18365 26.1321C9.3073 25.8333 9.41034 25.4726 9.46186 25.0502C9.48247 24.8441 9.48247 24.6174 9.48247 24.3804C9.48247 24.1434 9.46186 23.8961 9.41034 23.6282C9.35882 23.3603 9.28669 23.0821 9.20426 22.7936C9.16304 22.6494 9.11152 22.5051 9.06001 22.3506C9.00849 22.2063 8.96727 22.062 8.91575 21.9075C8.70967 21.3202 8.47268 20.7328 8.24599 20.197C8.13265 19.9291 8.02961 19.6818 7.92657 19.4552C7.83384 19.2285 7.7411 19.0327 7.66897 18.8678C7.52472 18.5278 7.43198 18.332 7.43198 18.332C7.43198 18.332 7.31864 18.5278 7.16408 18.8678C7.08165 19.0327 6.99922 19.2388 6.90648 19.4655C6.81375 19.7024 6.72101 19.96 6.63858 20.2279C6.59736 20.3619 6.54584 20.5062 6.50463 20.6504C6.46341 20.7947 6.4222 20.9389 6.39129 21.1038C6.32946 21.4129 6.26764 21.722 6.22642 22.0414C6.18521 22.3609 6.1543 22.67 6.1543 22.9688C6.1543 23.2779 6.18521 23.5767 6.23673 23.8549C6.35007 24.4113 6.54585 24.8956 6.79314 25.2975V25.3181Z" fill="#ACACAD"/>
<path d="M14.5936 26.8213C14.81 26.6873 15.0264 26.5328 15.2325 26.3782C15.4282 26.2236 15.6137 26.0588 15.7992 25.8939C15.9743 25.7291 16.1598 25.5745 16.3144 25.4199C16.4689 25.2654 16.6132 25.1108 16.7368 24.9769C16.7987 24.9047 16.8605 24.8429 16.912 24.7811C16.9635 24.7193 17.015 24.6677 17.0666 24.6162C17.252 24.4102 17.3551 24.2865 17.3551 24.2865C17.3551 24.2865 17.149 24.2659 16.7987 24.235C16.4483 24.2144 15.964 24.1835 15.4179 24.2041C14.8821 24.2247 14.2639 24.2762 13.6663 24.3689C13.5117 24.3998 13.3675 24.4205 13.2129 24.4514C13.0686 24.4823 12.9244 24.5235 12.7904 24.5647C12.5122 24.6471 12.2443 24.7399 12.0073 24.8532C11.7703 24.9666 11.554 25.0902 11.3582 25.2242C11.1624 25.3581 11.0078 25.5127 10.8636 25.6569C10.5854 25.9557 10.3896 26.2752 10.2557 26.5534C10.1217 26.8316 10.0702 27.0892 10.0393 27.2643C10.0084 27.4498 9.99805 27.5529 9.99805 27.5529C9.99805 27.5529 10.5339 27.6765 11.2861 27.6765C11.6673 27.6765 12.1001 27.6559 12.5431 27.5735C13.0068 27.5013 13.4808 27.3674 13.9445 27.1613C14.1712 27.0583 14.3875 26.9346 14.6039 26.7904L14.5936 26.8213Z" fill="#ACACAD"/>
<path d="M12.2025 16.5387C12.3365 16.9921 12.5219 17.3837 12.7177 17.7134C13.099 18.3522 13.5008 18.7129 13.5008 18.7129C13.5008 18.7129 13.8924 18.4553 14.2839 17.9401C14.3869 17.8061 14.4797 17.6619 14.5724 17.497C14.6651 17.3425 14.7682 17.157 14.8506 16.9715C15.0155 16.58 15.1391 16.1163 15.1907 15.5702C15.2525 15.0344 15.2422 14.4264 15.1907 13.7979C15.1391 13.1694 15.0876 12.5511 15.0155 11.9741C14.9434 11.4074 14.8712 10.9025 14.8197 10.5419C14.7579 10.1812 14.727 9.96484 14.727 9.96484C14.727 9.96484 14.6858 10.0061 14.6136 10.0782C14.5518 10.1606 14.4488 10.274 14.3251 10.4182C14.0881 10.7067 13.7584 11.1189 13.4287 11.5929C13.1093 12.0874 12.7898 12.6542 12.5322 13.2312C12.2849 13.8185 12.1098 14.4264 12.0479 14.9932C12.0376 15.1374 12.0273 15.2714 12.0273 15.4053C12.0273 15.5393 12.0376 15.6732 12.0479 15.8072C12.0789 16.0648 12.1304 16.3121 12.1922 16.5387H12.2025Z" fill="#ACACAD"/>
<path d="M19.303 19.9998C19.4266 19.9586 19.54 19.9174 19.6636 19.8659C19.7254 19.8453 19.777 19.8247 19.8388 19.7937C19.9006 19.7731 19.9624 19.7422 20.0243 19.7216C20.5085 19.5258 20.9413 19.2889 21.3226 19.0725C21.7141 18.8664 22.0438 18.6603 22.2705 18.5058C22.3839 18.4233 22.4766 18.3615 22.5384 18.3203C22.6002 18.2791 22.6415 18.2585 22.6415 18.2585C22.6415 18.2585 22.5899 18.2379 22.4972 18.2069C22.4045 18.176 22.2705 18.1245 22.116 18.073C21.7965 17.9699 21.3329 17.8257 20.7971 17.702C20.5292 17.6402 20.2509 17.5784 19.9521 17.5269C19.8079 17.5063 19.6533 17.4754 19.5091 17.4548C19.3648 17.4341 19.2102 17.4238 19.066 17.4135C18.4684 17.362 17.8604 17.362 17.3246 17.4548C16.7991 17.5475 16.3664 17.733 16.0057 17.939C15.8203 18.0421 15.6657 18.1554 15.5214 18.2791C15.3875 18.4027 15.2741 18.5264 15.1711 18.65C14.7693 19.1343 14.625 19.5465 14.625 19.5465C14.625 19.5465 15.1093 19.804 15.8409 20.0101C16.2015 20.1132 16.6343 20.2059 17.0979 20.2471C17.5616 20.2883 18.0356 20.278 18.5508 20.2059C18.8084 20.1647 19.0557 20.1029 19.303 20.0204V19.9998Z" fill="#ACACAD"/>
<path d="M20.7044 11.3038C20.7971 11.5099 20.8692 11.6232 20.8692 11.6232C20.8692 11.6232 20.9001 11.6232 20.9516 11.5923C21.0032 11.5717 21.0753 11.5408 21.1577 11.4996C21.3329 11.4171 21.5802 11.2832 21.8378 11.0874C22.353 10.6855 22.9918 10.0879 23.3937 9.05753C23.5276 8.7175 23.6616 8.34656 23.7646 7.95501C23.8986 7.46042 24.0119 6.93492 24.1047 6.43002C24.2077 5.93544 24.3004 5.45115 24.3623 5.01838C24.5065 4.16316 24.5786 3.55523 24.5786 3.54492C24.5786 3.54492 24.2695 3.73039 23.8161 4.04981C23.5895 4.20437 23.3319 4.40015 23.0433 4.61653C22.7754 4.84322 22.4869 5.10082 22.1984 5.37902C22.0233 5.54389 21.8584 5.71905 21.6935 5.90452C21.6523 5.94574 21.6111 5.99726 21.5699 6.03847C21.5287 6.07969 21.4978 6.13121 21.4565 6.18273C21.3844 6.27546 21.3123 6.3785 21.2402 6.47124C20.9516 6.86279 20.7147 7.26464 20.5498 7.6665C20.4364 7.92409 20.3643 8.2023 20.3231 8.4496C20.2819 8.70719 20.251 8.95449 20.251 9.19148C20.2407 9.66546 20.3128 10.0879 20.4055 10.4486C20.4983 10.8092 20.6116 11.0977 20.7044 11.3038Z" fill="#ACACAD"/>
<path d="M27.5347 14.2416C27.8438 14.1797 28.1323 14.1076 28.4002 14.0355C28.6681 13.9737 28.9154 13.9118 29.1215 13.85C29.5233 13.7264 29.7809 13.6336 29.7809 13.6336C29.7809 13.6336 29.3172 13.2833 28.6063 12.8608C28.2559 12.6445 27.8335 12.4178 27.3801 12.2014C26.937 11.9953 26.4631 11.8098 25.9788 11.6656C25.6078 11.5522 25.2472 11.4698 24.8969 11.4389C23.8459 11.3462 23.0112 11.645 22.4857 12.0159C22.2178 12.1911 22.0221 12.3766 21.8984 12.5002C21.8366 12.562 21.7851 12.6239 21.7542 12.6651C21.7232 12.7063 21.7129 12.7269 21.7129 12.7269C21.7129 12.7269 21.8057 12.8196 21.9808 12.9639C22.156 13.1081 22.4136 13.2936 22.7433 13.4894C23.0628 13.6852 23.4543 13.8912 23.8768 14.0561C24.0932 14.1385 24.3198 14.2107 24.5568 14.2622C24.7938 14.324 25.0308 14.3652 25.2884 14.3961C26.0406 14.4889 26.8134 14.3652 27.5347 14.2519V14.2416Z" fill="#ACACAD"/>
<path d="M38.5695 74.4457C38.3634 74.4251 38.1161 74.3942 37.8276 74.353C37.6834 74.3323 37.5288 74.322 37.3743 74.2911C37.2197 74.2602 37.0445 74.2293 36.8797 74.1984C36.5293 74.1366 36.1584 74.0747 35.7565 74.0026C35.365 73.9099 34.9425 73.8171 34.5098 73.7244C34.2934 73.6729 34.0667 73.6317 33.8503 73.5698C33.6339 73.508 33.4072 73.4462 33.1909 73.3844C32.7478 73.2607 32.2841 73.1474 31.841 72.9928C30.0379 72.457 28.3068 71.7048 27.0394 71.1072C26.7303 70.9526 26.4315 70.8084 26.1842 70.6847C26.0502 70.6229 25.9369 70.5611 25.8236 70.5096C25.7102 70.4581 25.6175 70.3962 25.5247 70.3447C25.1641 70.1489 24.9683 70.0356 24.9683 70.0356C24.9683 70.0356 24.7622 69.9223 24.4016 69.7265C24.0513 69.5204 23.5567 69.201 22.9591 68.8403C21.7947 68.0675 20.2594 66.9959 18.8684 65.7698C17.4671 64.5539 16.1791 63.2144 15.2723 62.1737C15.1487 62.05 15.0559 61.9161 14.9529 61.7925C14.8499 61.6688 14.7571 61.5555 14.6747 61.4421C14.4995 61.2257 14.345 61.0403 14.211 60.8754C14.0771 60.7208 13.9946 60.5869 13.9328 60.5045C13.871 60.4117 13.8298 60.3705 13.8298 60.3705C13.8298 60.3705 13.6958 60.185 13.4588 59.8656C13.3455 59.7008 13.1909 59.5153 13.0364 59.2783C12.8818 59.0413 12.7066 58.7837 12.5109 58.4952C12.4181 58.3509 12.3151 58.2067 12.2121 58.0521C12.109 57.8976 12.0163 57.7327 11.9132 57.5575C11.7072 57.2175 11.5011 56.8569 11.2744 56.4962C11.0786 56.115 10.8622 55.7234 10.6562 55.3319C10.6046 55.2288 10.5531 55.1361 10.4913 55.0331C10.4398 54.93 10.3986 54.827 10.347 54.7239C10.2543 54.5179 10.1513 54.3118 10.0585 54.1057C9.29607 52.4468 8.65722 50.726 8.29659 49.4071C8.24507 49.2423 8.20385 49.0877 8.15233 48.9331C8.11111 48.7889 8.0596 48.6446 8.03899 48.5107C7.97716 48.2428 7.91534 48.0058 7.87412 47.81C7.78139 47.4185 7.72987 47.2021 7.72987 47.2021C7.72987 47.2021 7.71957 47.1506 7.68865 47.0475C7.66805 46.9445 7.63713 46.7899 7.60622 46.5941C7.56501 46.3984 7.52379 46.1614 7.48257 45.8935C7.43106 45.6256 7.35893 45.3165 7.32802 44.9764C7.2868 44.6364 7.23528 44.2758 7.18376 43.8842C7.17346 43.7915 7.15285 43.6884 7.14254 43.5957C7.13224 43.4927 7.12194 43.3999 7.11163 43.2866C7.10133 43.0805 7.08072 42.8744 7.06011 42.658C6.96738 41.8131 6.96738 40.8961 6.94677 39.9893C6.97768 39.0826 6.97768 38.1758 7.06011 37.3206C7.07042 37.1145 7.09103 36.8981 7.11163 36.6921C7.11163 36.589 7.12194 36.486 7.14254 36.3932C7.15285 36.2902 7.17346 36.1975 7.18376 36.0944C7.23528 35.7132 7.2868 35.3422 7.32802 35.0022C7.36923 34.6622 7.43106 34.3634 7.48257 34.0852C7.53409 33.8173 7.57531 33.5803 7.60622 33.3845C7.64744 33.1887 7.66805 33.0342 7.68865 32.9311C7.71957 32.8281 7.72987 32.7766 7.72987 32.7766C7.72987 32.7766 7.78139 32.5602 7.87412 32.1686C7.91534 31.9729 7.97716 31.7359 8.03899 31.468C8.0699 31.334 8.11111 31.1898 8.15233 31.0455C8.19355 30.8909 8.24507 30.7364 8.29659 30.5715C8.65722 29.2526 9.29607 27.5422 10.0585 25.8729C10.1616 25.6668 10.2543 25.4608 10.347 25.2547C10.3986 25.1516 10.4398 25.0486 10.4913 24.9456C10.5428 24.8425 10.5943 24.7498 10.6562 24.6468C10.8725 24.2449 11.0786 23.8534 11.2744 23.4824C11.4908 23.1115 11.7072 22.7508 11.9132 22.4211C12.0163 22.2562 12.109 22.0811 12.2121 21.9265C12.3151 21.772 12.4181 21.6277 12.5109 21.4834C12.6963 21.1949 12.8818 20.9373 13.0364 20.7003C13.1909 20.4634 13.3455 20.2779 13.4588 20.113C13.6958 19.7833 13.8298 19.6081 13.8298 19.6081C13.8298 19.6081 13.871 19.5566 13.9328 19.4742C13.9946 19.3917 14.0874 19.2578 14.211 19.1032C14.3347 18.9487 14.4995 18.7529 14.6747 18.5365C14.7674 18.4232 14.8602 18.3098 14.9529 18.1862C15.0559 18.0625 15.159 17.9389 15.2723 17.8049C16.1791 16.7642 17.4671 15.4247 18.8684 14.2089C20.2697 12.9827 21.7947 11.9111 22.9591 11.1383C23.5567 10.7777 24.0513 10.4582 24.4016 10.2522C24.7622 10.0564 24.9683 9.94301 24.9683 9.94301C24.9683 9.94301 25.1744 9.82966 25.5247 9.63389C25.6175 9.58237 25.7102 9.53085 25.8236 9.46903C25.9369 9.41751 26.0502 9.35568 26.1842 9.29386C26.2666 9.25264 26.3594 9.21143 26.4521 9.15991H26.4727C26.6994 9.18052 27.0188 9.19082 27.4001 9.15991C28.1625 9.129 29.1517 8.96413 30.0173 8.49015C30.4706 8.26347 30.8931 7.94404 31.264 7.60401C31.4392 7.42885 31.635 7.26398 31.8101 7.08882C31.9853 6.92395 32.1399 6.74879 32.2841 6.58392C32.5623 6.2542 32.8199 5.96569 32.9848 5.74931C33.1496 5.53292 33.2424 5.39897 33.2424 5.39897C33.2424 5.39897 33.0363 5.39897 32.686 5.38867C32.3356 5.38867 31.8514 5.38867 31.3052 5.44019C31.1713 5.45049 31.027 5.46079 30.8828 5.4814C30.7385 5.50201 30.5943 5.52262 30.45 5.54323C30.1615 5.58444 29.8627 5.64627 29.5742 5.70809C28.9869 5.85234 28.3995 6.02751 27.9462 6.28511C27.4825 6.5324 27.1218 6.84152 26.8539 7.15064C26.5963 7.47006 26.4315 7.78948 26.3078 8.0883C26.1945 8.37681 26.143 8.63441 26.1224 8.80957C26.1224 8.84049 26.1224 8.8817 26.1224 8.91261C26.0915 8.93322 26.0502 8.94353 26.0193 8.96413C25.8957 9.02596 25.772 9.08778 25.6587 9.1393C25.5453 9.20112 25.4526 9.25264 25.3599 9.30416C24.9992 9.49994 24.7932 9.62359 24.7932 9.62359C24.7932 9.62359 24.5871 9.73693 24.2264 9.9327C23.8761 10.1388 23.3712 10.4582 22.7736 10.8292C21.5989 11.602 20.0533 12.6942 18.6417 13.9307C17.2301 15.1671 15.9318 16.5066 15.0044 17.568C14.8808 17.6916 14.788 17.8255 14.685 17.9492C14.582 18.0728 14.4892 18.1862 14.3965 18.2995C14.211 18.5159 14.0565 18.7117 13.9328 18.8662C13.7989 19.0208 13.7164 19.1548 13.6443 19.2372C13.5825 19.3196 13.5413 19.3711 13.5413 19.3711C13.5413 19.3711 13.4073 19.5566 13.16 19.8863C13.0467 20.0512 12.8921 20.247 12.7272 20.484C12.5727 20.721 12.3975 20.9889 12.2017 21.2774C12.0987 21.4216 12.006 21.5762 11.9029 21.7307C11.7999 21.8853 11.7072 22.0605 11.6041 22.2253C11.398 22.5654 11.1817 22.926 10.9653 23.2969C10.7592 23.6782 10.5531 24.0697 10.3367 24.4819C10.2852 24.5849 10.2337 24.688 10.1719 24.7807C10.1204 24.8837 10.0791 24.9868 10.0276 25.0898C9.92461 25.2959 9.83187 25.5123 9.72883 25.7184C8.95604 27.3979 8.30689 29.129 7.94625 30.4582C7.89473 30.623 7.85352 30.7776 7.802 30.9322C7.76078 31.0867 7.70926 31.2207 7.67835 31.3649C7.61653 31.6328 7.5547 31.8801 7.51349 32.0759C7.42075 32.4674 7.35893 32.6941 7.35893 32.6941C7.35893 32.6941 7.34862 32.756 7.31771 32.859C7.2868 32.962 7.26619 33.1166 7.22498 33.3227C7.19406 33.5184 7.14255 33.7657 7.09103 34.0336C7.03951 34.3118 6.97768 34.621 6.93647 34.961C6.89525 35.301 6.84373 35.672 6.79221 36.0635C6.78191 36.1666 6.7613 36.2593 6.751 36.3623C6.74069 36.4654 6.73039 36.5684 6.72008 36.6714C6.70978 36.8775 6.68917 37.0836 6.66856 37.3103C6.57583 38.1655 6.57583 39.0826 6.54492 39.9996C6.57583 40.9167 6.57583 41.8337 6.66856 42.6889C6.68917 42.9053 6.69948 43.1114 6.72008 43.3175C6.73039 43.4205 6.73039 43.5236 6.751 43.6163C6.7613 43.7193 6.78191 43.8224 6.79221 43.9151C6.84373 44.3067 6.89525 44.6776 6.93647 45.0176C6.97768 45.3577 7.04981 45.6668 7.09103 45.945C7.14255 46.2232 7.18376 46.4602 7.22498 46.656C7.26619 46.8517 7.2868 47.0063 7.31771 47.1196C7.33832 47.2227 7.35893 47.2845 7.35893 47.2845C7.35893 47.2845 7.41045 47.5112 7.51349 47.9027C7.5547 48.0985 7.61653 48.3355 7.67835 48.6137C7.70926 48.7477 7.75048 48.8919 7.802 49.0465C7.84321 49.201 7.89473 49.3556 7.94625 49.5205C8.30689 50.8497 8.94573 52.5807 9.72883 54.2603C9.82157 54.4664 9.92461 54.6827 10.0276 54.8888C10.0791 54.9918 10.1204 55.0949 10.1719 55.1979C10.2234 55.301 10.2852 55.404 10.3367 55.4967C10.5531 55.8986 10.7592 56.2901 10.9653 56.6817C11.1817 57.0526 11.398 57.4133 11.6041 57.7533C11.7072 57.9182 11.7999 58.0933 11.9029 58.2479C12.006 58.4025 12.109 58.557 12.2017 58.7013C12.3975 58.9898 12.5727 59.2577 12.7272 59.4947C12.8818 59.7317 13.0364 59.9274 13.16 60.0923C13.4073 60.422 13.5413 60.6075 13.5413 60.6075C13.5413 60.6075 13.5825 60.659 13.6443 60.7414C13.7061 60.8239 13.7989 60.9578 13.9328 61.1124C14.0565 61.267 14.2213 61.4627 14.3965 61.6791C14.4892 61.7925 14.582 61.9058 14.685 62.0294C14.788 62.1531 14.8808 62.287 15.0044 62.4107C15.9215 63.472 17.2198 64.8115 18.6417 66.048C20.0533 67.2845 21.5989 68.3664 22.7736 69.1495C23.3815 69.5204 23.8761 69.8398 24.2264 70.0459C24.5871 70.2417 24.7932 70.355 24.7932 70.355C24.7932 70.355 24.9992 70.4684 25.3599 70.6744C25.4526 70.726 25.5557 70.7775 25.6587 70.8393C25.772 70.8908 25.8957 70.9527 26.0193 71.0145C26.2769 71.1381 26.5654 71.2824 26.8849 71.4472C28.1728 72.0449 29.9142 72.7971 31.738 73.3432C32.1914 73.4977 32.6448 73.6111 33.0981 73.7347C33.3248 73.7965 33.5515 73.8584 33.7679 73.9202C33.9843 73.982 34.211 74.0232 34.4273 74.0747C34.8601 74.1675 35.2826 74.2602 35.6844 74.353C36.0863 74.4251 36.4675 74.4869 36.8178 74.5487C36.993 74.5796 37.1579 74.6106 37.3227 74.6312C37.4876 74.6621 37.6422 74.6724 37.7864 74.693C38.0749 74.7239 38.3222 74.7548 38.5386 74.7857C38.9508 74.8372 39.1878 74.8681 39.1878 74.8681L39.229 74.5178C39.229 74.5178 38.992 74.4869 38.5798 74.4354L38.5695 74.4457Z" fill="#ACACAD"/>
<path d="M90.6583 18.9222V14.762C90.6583 14.6093 90.5669 14.4552 90.4343 14.3784L86.5604 12.1425C86.4297 12.067 86.2467 12.0671 86.1167 12.1424L82.2188 14.3784C82.0864 14.455 81.9727 14.6091 81.9727 14.762V18.9222C81.9727 19.075 82.0861 19.2292 82.2186 19.3058L86.1033 21.5416C86.1687 21.5794 86.2516 21.5995 86.3312 21.5995C86.4109 21.5995 86.4906 21.5795 86.5558 21.5418L90.4331 19.3056C90.5654 19.229 90.6583 19.0749 90.6583 18.9222Z" fill="#ACACAD"/>
<path d="M80.4593 18.9541V14.7825C80.4593 14.6259 80.3844 14.4706 80.2467 14.396L77.6456 12.9842C77.5891 12.9536 77.5271 12.9375 77.4649 12.9375C77.2619 12.9375 77.1035 13.1002 77.1035 13.308V20.4287C77.1035 20.6364 77.2663 20.7992 77.4694 20.7992C77.5316 20.7992 77.5961 20.7831 77.6524 20.7525L80.2458 19.3405C80.3835 19.266 80.4593 19.1107 80.4593 18.9541Z" fill="#ACACAD" fill-opacity="0.8"/>
<path d="M87.3249 10.8197L91.2143 13.0659C91.2801 13.1038 91.3569 13.1239 91.4373 13.1239C91.513 13.1239 91.586 13.1059 91.6491 13.0718L94.2426 11.6687C94.364 11.6031 94.4375 11.4846 94.4393 11.3519C94.4411 11.2191 94.3707 11.0987 94.2515 11.0301L87.652 7.21982C87.5933 7.18587 87.5296 7.16797 87.4641 7.16797C87.2618 7.16797 87.1055 7.3303 87.1055 7.53757V10.4361C87.1056 10.589 87.1924 10.7431 87.3249 10.8197Z" fill="#5F5F60" fill-opacity="0.5"/>
<path d="M78.4321 11.6685L81.0259 13.0718C81.0889 13.1059 81.1622 13.1238 81.2379 13.1238C81.3185 13.1238 81.3959 13.1037 81.4617 13.0657L85.3283 10.8195C85.4605 10.7429 85.5254 10.5888 85.5254 10.436V7.53757C85.5254 7.3303 85.3911 7.16797 85.1887 7.16797C85.1231 7.16797 85.0693 7.18594 85.0109 7.21976L78.4176 11.0299C78.2981 11.0987 78.2308 11.219 78.2325 11.3517C78.2342 11.4844 78.3107 11.6029 78.4321 11.6685Z" fill="#ACACAD" fill-opacity="0.8"/>
<path d="M95.1837 12.9375C95.1216 12.9375 95.068 12.9536 95.0116 12.9842L92.4021 14.396C92.2642 14.4704 92.1719 14.6258 92.1719 14.7825V18.9541C92.1719 19.1108 92.2687 19.2661 92.4065 19.3405L95.0185 20.7479C95.0749 20.7785 95.1415 20.7902 95.2036 20.7902C95.3119 20.7902 95.3937 20.7469 95.4622 20.6636C95.5164 20.5976 95.5276 20.5171 95.5276 20.4286V13.308C95.5277 13.1002 95.3868 12.9375 95.1837 12.9375Z" fill="#ACACAD" fill-opacity="0.7"/>
<path d="M85.3286 22.8642L81.4972 20.6451C81.3693 20.5712 81.1975 20.5685 81.0671 20.639L78.4763 22.0423C78.355 22.1079 78.2831 22.2264 78.2813 22.359C78.2796 22.4917 78.3506 22.612 78.4698 22.6806L85.0229 26.4632C85.0816 26.4972 85.1477 26.5145 85.2133 26.5145C85.3227 26.5145 85.4007 26.4664 85.4689 26.3814C85.522 26.3152 85.5261 26.2344 85.5261 26.1463V23.2477C85.5261 23.0951 85.4612 22.941 85.3286 22.8642Z" fill="#5F5F60" fill-opacity="0.6"/>
<path d="M94.196 22.0421L91.6024 20.639C91.4725 20.5687 91.2944 20.5711 91.1664 20.645L87.3248 22.8642C87.1924 22.9407 87.1055 23.0949 87.1055 23.2477V26.1462C87.1055 26.3535 87.2618 26.5158 87.4641 26.5158C87.5296 26.5158 87.5942 26.4979 87.6529 26.4641L94.2051 22.6808C94.3246 22.612 94.3946 22.4917 94.3929 22.3589C94.3911 22.226 94.3173 22.1076 94.196 22.0421Z" fill="#ACACAD" fill-opacity="0.8"/>
<path d="M55.1932 35.1818V46.8181H52.733V37.517H52.6648L50 39.1874V37.0056L52.8807 35.1818H55.1932ZM64.3494 46.8181L61.0199 35.1818H63.7074L65.6335 43.267H65.7301L67.8551 35.1818H70.1562L72.2756 43.284H72.3778L74.304 35.1818H76.9915L73.6619 46.8181H71.2642L69.0483 39.2102H68.9574L66.7472 46.8181H64.3494ZM79.8139 46.9829C79.2571 46.9829 78.7609 46.8863 78.3253 46.6931C77.8897 46.4961 77.545 46.2064 77.2912 45.8238C77.0412 45.4374 76.9162 44.9564 76.9162 44.3806C76.9162 43.8958 77.0052 43.4886 77.1832 43.159C77.3613 42.8295 77.6037 42.5643 77.9105 42.3636C78.2173 42.1628 78.5658 42.0113 78.956 41.909C79.3499 41.8068 79.7628 41.7348 80.1946 41.6931C80.7022 41.6401 81.1113 41.5908 81.4219 41.5454C81.7325 41.4961 81.9579 41.4242 82.098 41.3295C82.2382 41.2348 82.3082 41.0946 82.3082 40.909V40.8749C82.3082 40.5151 82.1946 40.2367 81.9673 40.0397C81.7438 39.8427 81.4257 39.7443 81.0128 39.7443C80.5772 39.7443 80.2306 39.8408 79.973 40.034C79.7154 40.2234 79.545 40.4621 79.4616 40.7499L77.223 40.5681C77.3366 40.0378 77.5601 39.5795 77.8935 39.1931C78.2268 38.803 78.6567 38.5037 79.1832 38.2954C79.7135 38.0833 80.3272 37.9772 81.0241 37.9772C81.509 37.9772 81.973 38.034 82.4162 38.1477C82.8632 38.2613 83.259 38.4374 83.6037 38.6761C83.9522 38.9147 84.2268 39.2215 84.4276 39.5965C84.6283 39.9677 84.7287 40.4128 84.7287 40.9318V46.8181H82.4332V45.6079H82.3651C82.2249 45.8806 82.0374 46.1211 81.8026 46.3295C81.5677 46.534 81.2855 46.695 80.956 46.8124C80.6264 46.9261 80.2457 46.9829 79.8139 46.9829ZM80.5071 45.3124C80.8632 45.3124 81.1776 45.2424 81.4503 45.1022C81.723 44.9583 81.937 44.7651 82.0923 44.5227C82.2476 44.2802 82.3253 44.0056 82.3253 43.6988V42.7727C82.2495 42.8219 82.1454 42.8674 82.0128 42.909C81.884 42.9469 81.7382 42.9829 81.5753 43.017C81.4124 43.0473 81.2495 43.0757 81.0866 43.1022C80.9238 43.1249 80.776 43.1458 80.6435 43.1647C80.3594 43.2064 80.1113 43.2727 79.8991 43.3636C79.687 43.4545 79.5223 43.5776 79.4048 43.7329C79.2874 43.8844 79.2287 44.0738 79.2287 44.3011C79.2287 44.6306 79.348 44.8825 79.5866 45.0568C79.8291 45.2272 80.1359 45.3124 80.5071 45.3124ZM89.027 35.1818V46.8181H86.6065V35.1818H89.027ZM93.3864 35.1818V46.8181H90.9659V35.1818H93.3864ZM99.3026 46.9886C98.4048 46.9886 97.6321 46.8068 96.9844 46.4431C96.3404 46.0757 95.8442 45.5568 95.4957 44.8863C95.1473 44.2121 94.973 43.4147 94.973 42.4943C94.973 41.5965 95.1473 40.8086 95.4957 40.1306C95.8442 39.4526 96.3348 38.9242 96.9673 38.5454C97.6037 38.1666 98.3499 37.9772 99.206 37.9772C99.7817 37.9772 100.318 38.07 100.814 38.2556C101.314 38.4374 101.75 38.7121 102.121 39.0795C102.496 39.4469 102.787 39.909 102.996 40.4658C103.204 41.0189 103.308 41.6666 103.308 42.409V43.0738H95.9389V41.5738H101.03C101.03 41.2253 100.954 40.9166 100.803 40.6477C100.651 40.3787 100.441 40.1685 100.172 40.017C99.9067 39.8617 99.598 39.784 99.2457 39.784C98.8783 39.784 98.5526 39.8693 98.2685 40.0397C97.9882 40.2064 97.7685 40.4318 97.6094 40.7158C97.4503 40.9961 97.3688 41.3086 97.3651 41.6533V43.0795C97.3651 43.5113 97.4446 43.8844 97.6037 44.1988C97.7666 44.5132 97.9957 44.7556 98.2912 44.9261C98.5866 45.0965 98.937 45.1818 99.3423 45.1818C99.6113 45.1818 99.8575 45.1439 100.081 45.0681C100.304 44.9924 100.496 44.8787 100.655 44.7272C100.814 44.5757 100.935 44.3901 101.018 44.1704L103.257 44.3181C103.143 44.856 102.911 45.3257 102.558 45.7272C102.21 46.1249 101.759 46.4355 101.206 46.659C100.657 46.8787 100.022 46.9886 99.3026 46.9886ZM109.53 38.0908V39.909H104.274V38.0908H109.53ZM105.467 35.9999H107.888V44.1363C107.888 44.3598 107.922 44.534 107.99 44.659C108.058 44.7802 108.153 44.8655 108.274 44.9147C108.399 44.9639 108.543 44.9886 108.706 44.9886C108.82 44.9886 108.933 44.9791 109.047 44.9602C109.161 44.9374 109.248 44.9204 109.308 44.909L109.689 46.7102C109.568 46.748 109.397 46.7916 109.178 46.8408C108.958 46.8939 108.691 46.9261 108.376 46.9374C107.793 46.9602 107.282 46.8825 106.842 46.7045C106.407 46.5264 106.068 46.2499 105.825 45.8749C105.583 45.4999 105.464 45.0264 105.467 44.4545V35.9999Z" fill="#ACACAD"/>
<path d="M52.9105 59.8806V63.8181H51.9048V57.2727H52.8764V58.2954H52.9616C53.1151 57.963 53.348 57.696 53.6605 57.4943C53.973 57.2897 54.3764 57.1874 54.8707 57.1874C55.3139 57.1874 55.7017 57.2783 56.0341 57.4602C56.3665 57.6391 56.625 57.9119 56.8097 58.2783C56.9943 58.642 57.0866 59.1022 57.0866 59.659V63.8181H56.081V59.7272C56.081 59.213 55.9474 58.8124 55.6804 58.5255C55.4134 58.2357 55.0469 58.0908 54.581 58.0908C54.2599 58.0908 53.973 58.1604 53.7202 58.2996C53.4702 58.4389 53.2727 58.642 53.1278 58.909C52.983 59.1761 52.9105 59.4999 52.9105 59.8806ZM61.9585 56.0283V55.0908H68.5039V56.0283H65.7596V63.8181H64.7028V56.0283H61.9585ZM77.1353 59.4545C77.1353 60.3749 76.9691 61.1704 76.6367 61.8408C76.3043 62.5113 75.8484 63.0283 75.2688 63.392C74.6893 63.7556 74.0273 63.9374 73.283 63.9374C72.5387 63.9374 71.8768 63.7556 71.2972 63.392C70.7177 63.0283 70.2617 62.5113 69.9293 61.8408C69.5969 61.1704 69.4308 60.3749 69.4308 59.4545C69.4308 58.534 69.5969 57.7386 69.9293 57.0681C70.2617 56.3977 70.7177 55.8806 71.2972 55.517C71.8768 55.1533 72.5387 54.9715 73.283 54.9715C74.0273 54.9715 74.6893 55.1533 75.2688 55.517C75.8484 55.8806 76.3043 56.3977 76.6367 57.0681C76.9691 57.7386 77.1353 58.534 77.1353 59.4545ZM76.1126 59.4545C76.1126 58.6988 75.9862 58.061 75.7333 57.5411C75.4833 57.0212 75.1438 56.6278 74.7148 56.3607C74.2887 56.0937 73.8114 55.9602 73.283 55.9602C72.7546 55.9602 72.2759 56.0937 71.8469 56.3607C71.4208 56.6278 71.0813 57.0212 70.8285 57.5411C70.5785 58.061 70.4535 58.6988 70.4535 59.4545C70.4535 60.2102 70.5785 60.8479 70.8285 61.3678C71.0813 61.8877 71.4208 62.2812 71.8469 62.5482C72.2759 62.8153 72.7546 62.9488 73.283 62.9488C73.8114 62.9488 74.2887 62.8153 74.7148 62.5482C75.1438 62.2812 75.4833 61.8877 75.7333 61.3678C75.9862 60.8479 76.1126 60.2102 76.1126 59.4545ZM85.8327 55.0908V63.8181H84.81L80.0543 56.9658H79.9691V63.8181H78.9123V55.0908H79.935L84.7077 61.9602H84.793V55.0908H85.8327ZM91.6804 63.8181H90.5724L93.777 55.0908H94.8679L98.0724 63.8181H96.9645L94.3565 56.4715H94.2884L91.6804 63.8181ZM92.0895 60.409H96.5554V61.3465H92.0895V60.409ZM99.2955 66.2727V57.2727H100.267V58.3124H100.386C100.46 58.1988 100.563 58.0539 100.693 57.8778C100.827 57.6988 101.017 57.5397 101.264 57.4005C101.514 57.2585 101.852 57.1874 102.278 57.1874C102.83 57.1874 103.315 57.3252 103.736 57.6008C104.156 57.8764 104.484 58.267 104.72 58.7727C104.956 59.2783 105.074 59.8749 105.074 60.5624C105.074 61.2556 104.956 61.8565 104.72 62.365C104.484 62.8707 104.158 63.2627 103.74 63.5411C103.322 63.8167 102.841 63.9545 102.295 63.9545C101.875 63.9545 101.538 63.8849 101.286 63.7457C101.033 63.6036 100.838 63.4431 100.702 63.2641C100.565 63.0823 100.46 62.9318 100.386 62.8124H100.301V66.2727H99.2955ZM100.284 60.5454C100.284 61.0397 100.357 61.4758 100.501 61.8536C100.646 62.2286 100.858 62.5227 101.136 62.7357C101.415 62.946 101.756 63.0511 102.159 63.0511C102.58 63.0511 102.93 62.9403 103.212 62.7187C103.496 62.4943 103.709 62.1931 103.851 61.8153C103.996 61.4346 104.068 61.0113 104.068 60.5454C104.068 60.0852 103.997 59.6704 103.855 59.3011C103.716 58.9289 103.504 58.6349 103.22 58.419C102.939 58.2002 102.585 58.0908 102.159 58.0908C101.75 58.0908 101.406 58.1945 101.128 58.4019C100.849 58.6065 100.639 58.8934 100.497 59.2627C100.355 59.6292 100.284 60.0568 100.284 60.5454ZM106.608 66.2727V57.2727H107.58V58.3124H107.699C107.773 58.1988 107.875 58.0539 108.006 57.8778C108.139 57.6988 108.33 57.5397 108.577 57.4005C108.827 57.2585 109.165 57.1874 109.591 57.1874C110.142 57.1874 110.628 57.3252 111.048 57.6008C111.469 57.8764 111.797 58.267 112.033 58.7727C112.268 59.2783 112.386 59.8749 112.386 60.5624C112.386 61.2556 112.268 61.8565 112.033 62.365C111.797 62.8707 111.47 63.2627 111.053 63.5411C110.635 63.8167 110.153 63.9545 109.608 63.9545C109.188 63.9545 108.851 63.8849 108.598 63.7457C108.345 63.6036 108.151 63.4431 108.014 63.2641C107.878 63.0823 107.773 62.9318 107.699 62.8124H107.614V66.2727H106.608ZM107.597 60.5454C107.597 61.0397 107.669 61.4758 107.814 61.8536C107.959 62.2286 108.17 62.5227 108.449 62.7357C108.727 62.946 109.068 63.0511 109.472 63.0511C109.892 63.0511 110.243 62.9403 110.524 62.7187C110.808 62.4943 111.021 62.1931 111.163 61.8153C111.308 61.4346 111.381 61.0113 111.381 60.5454C111.381 60.0852 111.31 59.6704 111.168 59.3011C111.028 58.9289 110.817 58.6349 110.533 58.419C110.251 58.2002 109.898 58.0908 109.472 58.0908C109.063 58.0908 108.719 58.1945 108.44 58.4019C108.162 58.6065 107.952 58.8934 107.81 59.2627C107.668 59.6292 107.597 60.0568 107.597 60.5454Z" fill="#ACACAD"/>
</svg>